<svg width="92" height="33" viewBox="0 0 92 33" fill="none" xmlns="http://www.w3.org/2000/svg">
<path fill-rule="evenodd" clip-rule="evenodd" d="M10.4229 9.95492V32.1609L0 26.1406V3.93164L10.4229 9.95492Z" fill="#1DAEFF"/>
<path d="M15.5831 6.52606L4.25391 0V4.53323L11.9569 8.98173V22.5796L15.5831 24.6571C17.8271 25.9531 19.6628 25.176 19.6628 22.9334V12.9622C19.6628 10.7181 17.8271 7.82239 15.5831 6.52606Z" fill="#1D94DD"/>
<path d="M29.5018 23H26.2063L31.2276 8.45455H35.1907L40.2049 23H36.9094L33.266 11.7784H33.1523L29.5018 23ZM29.2958 17.2827H37.0799V19.6832H29.2958V17.2827ZM41.9556 23V8.45455H45.0309V20.4645H51.2667V23H41.9556ZM61.1939 12.6378C61.1371 12.0649 60.8932 11.6198 60.4624 11.3026C60.0315 10.9853 59.4467 10.8267 58.7081 10.8267C58.2062 10.8267 57.7824 10.8977 57.4368 11.0398C57.0911 11.1771 56.826 11.3688 56.6413 11.6151C56.4614 11.8613 56.3714 12.1406 56.3714 12.4531C56.362 12.7135 56.4164 12.9408 56.5348 13.1349C56.6579 13.3291 56.826 13.4972 57.0391 13.6392C57.2521 13.7765 57.4983 13.8973 57.7777 14.0014C58.0571 14.1009 58.3554 14.1861 58.6726 14.2571L59.9794 14.5696C60.6139 14.7116 61.1963 14.901 61.7266 15.1378C62.2569 15.3745 62.7161 15.6657 63.1044 16.0114C63.4927 16.357 63.7933 16.7642 64.0064 17.233C64.2242 17.7017 64.3355 18.2391 64.3402 18.8452C64.3355 19.7353 64.1082 20.5071 63.6584 21.1605C63.2133 21.8092 62.5694 22.3134 61.7266 22.6733C60.8885 23.0284 59.8776 23.206 58.6939 23.206C57.5196 23.206 56.4969 23.026 55.6257 22.6662C54.7592 22.3063 54.0821 21.7737 53.5945 21.0682C53.1115 20.358 52.8582 19.4796 52.8345 18.4332H55.8104C55.8435 18.9209 55.9832 19.3281 56.2294 19.6548C56.4804 19.9768 56.8142 20.2206 57.2308 20.3864C57.6522 20.5473 58.1281 20.6278 58.6584 20.6278C59.1792 20.6278 59.6314 20.5521 60.0149 20.4006C60.4032 20.2491 60.7038 20.0384 60.9169 19.7685C61.13 19.4986 61.2365 19.1884 61.2365 18.8381C61.2365 18.5114 61.1394 18.2367 60.9453 18.0142C60.7559 17.7917 60.4766 17.6023 60.1072 17.446C59.7427 17.2898 59.2952 17.1477 58.7649 17.0199L57.1811 16.6222C55.9548 16.3239 54.9865 15.8575 54.2763 15.223C53.5661 14.5885 53.2133 13.7339 53.218 12.6591C53.2133 11.7784 53.4477 11.009 53.9212 10.3509C54.3994 9.69271 55.0552 9.17898 55.8885 8.80966C56.7218 8.44034 57.6688 8.25568 58.7294 8.25568C59.8089 8.25568 60.7512 8.44034 61.5561 8.80966C62.3658 9.17898 62.9955 9.69271 63.4453 10.3509C63.8951 11.009 64.1271 11.7713 64.1413 12.6378H61.1939ZM68.5838 23H65.2884L70.3097 8.45455H74.2727L79.2869 23H75.9915L72.348 11.7784H72.2344L68.5838 23ZM68.3778 17.2827H76.1619V19.6832H68.3778V17.2827ZM78.7063 10.9901V8.45455H90.6523V10.9901H86.1992V23H83.1594V10.9901H78.7063Z" fill="#323232"/>
</svg>
